<svg width="24" height="24" viewBox="0 0 24 24" fill="none" xmlns="http://www.w3.org/2000/svg">
<path d="M23.7065 22.2928L18.5935 17.1799C20.0957 15.3637 20.9989 13.0349 20.9989 10.5C21 4.71043 16.2896 0 10.5 0C4.71043 0 0 4.71043 0 10.5C0 16.2896 4.71043 21 10.5 21C13.036 21 15.3637 20.0968 17.1799 18.5946L22.2928 23.7076C22.4881 23.9029 22.7439 24 22.9996 24C23.2554 24 23.5112 23.9029 23.7065 23.7076C24.0971 23.3169 24.0971 22.6835 23.7065 22.2939V22.2928ZM1.99964 10.5C1.99964 5.81331 5.81223 1.99964 10.5 1.99964C15.1878 1.99964 19.0004 5.81223 19.0004 10.5C19.0004 15.1878 15.1878 19.0004 10.5 19.0004C5.81223 19.0004 1.99964 15.1867 1.99964 10.5Z" fill="#BABABA"/>
</svg>
