<svg width="20" height="20" viewBox="0 0 20 20" fill="none" xmlns="http://www.w3.org/2000/svg">
<path fill-rule="evenodd" clip-rule="evenodd" d="M4.1665 3.33366C3.70627 3.33366 3.33317 3.70675 3.33317 4.16699V15.8337C3.33317 16.2939 3.70627 16.667 4.1665 16.667H15.8332C16.2934 16.667 16.6665 16.2939 16.6665 15.8337V4.16699C16.6665 3.70675 16.2934 3.33366 15.8332 3.33366H4.1665ZM1.6665 4.16699C1.6665 2.78628 2.78579 1.66699 4.1665 1.66699H15.8332C17.2139 1.66699 18.3332 2.78628 18.3332 4.16699V15.8337C18.3332 17.2144 17.2139 18.3337 15.8332 18.3337H4.1665C2.78579 18.3337 1.6665 17.2144 1.6665 15.8337V4.16699Z" fill="#BABABA"/>
<path fill-rule="evenodd" clip-rule="evenodd" d="M7.08317 6.66699C6.85305 6.66699 6.6665 6.85354 6.6665 7.08366C6.6665 7.31378 6.85305 7.50033 7.08317 7.50033C7.31329 7.50033 7.49984 7.31378 7.49984 7.08366C7.49984 6.85354 7.31329 6.66699 7.08317 6.66699ZM4.99984 7.08366C4.99984 5.93307 5.93258 5.00033 7.08317 5.00033C8.23376 5.00033 9.1665 5.93307 9.1665 7.08366C9.1665 8.23425 8.23376 9.16699 7.08317 9.16699C5.93258 9.16699 4.99984 8.23425 4.99984 7.08366Z" fill="#BABABA"/>
<path fill-rule="evenodd" clip-rule="evenodd" d="M12.7439 7.7444C13.0694 7.41897 13.597 7.41897 13.9224 7.7444L18.0891 11.9111C18.4145 12.2365 18.4145 12.7641 18.0891 13.0896C17.7637 13.415 17.236 13.415 16.9106 13.0896L13.3332 9.51217L4.75576 18.0896C4.43032 18.415 3.90269 18.415 3.57725 18.0896C3.25181 17.7641 3.25181 17.2365 3.57725 16.9111L12.7439 7.7444Z" fill="#BABABA"/>
</svg>
