<svg width="24" height="25" viewBox="0 0 24 25" fill="none" xmlns="http://www.w3.org/2000/svg">
<path d="M24 21.4286C24.0002 21.7684 23.9335 22.1049 23.8036 22.4189C23.6738 22.7328 23.4833 23.0182 23.2432 23.2586C23.0031 23.4989 22.7179 23.6897 22.4041 23.8198C22.0902 23.95 21.7538 24.0171 21.414 24.0172H2.58527C1.89909 24.0168 1.24116 23.7439 0.756201 23.2584C0.271242 22.773 -0.00103063 22.1148 -0.000732177 21.4286V2.6036C-0.000732242 1.91765 0.271685 1.25978 0.756621 0.774629C1.24156 0.289481 1.89931 0.0167778 2.58527 0.0164795H21.414C22.8428 0.0164795 24 1.17523 24 2.6036V21.4286Z" fill="#1B75BB"/>
<path d="M9.50372 5.67871C8.63635 5.73759 7.91185 6.11671 7.59497 6.63609V16.9928C7.91372 17.5133 8.63935 17.8928 9.5086 17.9506L17.9048 11.837L9.50372 5.67871Z" fill="white"/>
</svg>
