<svg width="20" height="21" viewBox="0 0 20 21" fill="none" xmlns="http://www.w3.org/2000/svg">
<path fill-rule="evenodd" clip-rule="evenodd" d="M9.99992 3.00016C5.85778 3.00016 2.49992 6.35803 2.49992 10.5002C2.49992 14.6423 5.85778 18.0002 9.99992 18.0002C14.1421 18.0002 17.4999 14.6423 17.4999 10.5002C17.4999 6.35803 14.1421 3.00016 9.99992 3.00016ZM0.833252 10.5002C0.833252 5.43755 4.93731 1.3335 9.99992 1.3335C15.0625 1.3335 19.1666 5.43755 19.1666 10.5002C19.1666 15.5628 15.0625 19.6668 9.99992 19.6668C4.93731 19.6668 0.833252 15.5628 0.833252 10.5002Z" fill="white"/>
<path fill-rule="evenodd" clip-rule="evenodd" d="M10.0001 6.3335C10.4603 6.3335 10.8334 6.70659 10.8334 7.16683V13.8335C10.8334 14.2937 10.4603 14.6668 10.0001 14.6668C9.53984 14.6668 9.16675 14.2937 9.16675 13.8335V7.16683C9.16675 6.70659 9.53984 6.3335 10.0001 6.3335Z" fill="white"/>
<path fill-rule="evenodd" clip-rule="evenodd" d="M5.83325 10.4998C5.83325 10.0396 6.20635 9.6665 6.66659 9.6665H13.3333C13.7935 9.6665 14.1666 10.0396 14.1666 10.4998C14.1666 10.9601 13.7935 11.3332 13.3333 11.3332H6.66659C6.20635 11.3332 5.83325 10.9601 5.83325 10.4998Z" fill="white"/>
</svg>
