<svg width="131" height="49" viewBox="0 0 131 49" fill="none" xmlns="http://www.w3.org/2000/svg">
<rect width="130.199" height="49" transform="translate(0.271484)" fill="#FFCB1D"/>
<path d="M21.031 29.8V31.32H37.011V29.8H29.911V26.14H35.151V17.1H33.331V20.14H24.691V17.1H22.871V26.14H28.091V29.8H21.031ZM24.691 24.68V21.62H33.331V24.68H24.691ZM51.1915 15.88V33.52H53.0315V15.88H51.1915ZM38.6715 28.86L39.6315 30.3C45.6315 27.4 47.8115 22.94 47.8115 17.76H39.5115V19.24H45.9715C45.6115 23.38 43.3515 26.6 38.6715 28.86Z" fill="#00084A"/>
<path d="M65.2715 27.6388L110.471 27.6389L103.912 21.3604" stroke="#00084A" stroke-width="2" stroke-linecap="round"/>
</svg>
