<svg width="20" height="21" viewBox="0 0 20 21" fill="none" xmlns="http://www.w3.org/2000/svg">
<path d="M7.8072 3.44987L10.3721 5.46525L12.1259 3.89463L14.7432 3.13574L17.7793 4.39206L19.2189 7.45433L18.6692 9.83609L10.4508 18.7088L3.04379 11.3541L1.63037 8.42274L2.15374 5.43899L5.29476 3.31898L7.8072 3.44987Z" fill="#FF5858"/>
<path fill-rule="evenodd" clip-rule="evenodd" d="M12.4278 2.84591C13.0851 2.57354 13.7897 2.43335 14.5012 2.43335C15.2128 2.43335 15.9173 2.57354 16.5747 2.84591C17.2319 3.11823 17.8291 3.51735 18.332 4.02048C18.8351 4.52344 19.2345 5.12086 19.5069 5.77808C19.7792 6.43543 19.9194 7.14 19.9194 7.85154C19.9194 8.56308 19.7792 9.26765 19.5069 9.92499C19.2345 10.5823 18.8354 11.1795 18.3322 11.6825C18.3321 11.6825 18.3322 11.6824 18.3322 11.6825L10.9655 19.0491C10.6401 19.3746 10.1124 19.3746 9.78698 19.0491L2.42032 11.6825C1.40429 10.6664 0.833496 9.28841 0.833496 7.85154C0.833496 6.41466 1.40429 5.03664 2.42032 4.02062C3.43634 3.00459 4.81436 2.4338 6.25124 2.4338C7.68811 2.4338 9.06614 3.00459 10.0822 4.02062L10.3762 4.31469L10.6702 4.02075C10.6702 4.02071 10.6701 4.0208 10.6702 4.02075C11.1732 3.51757 11.7705 3.11826 12.4278 2.84591ZM14.5012 4.10002C14.0086 4.10002 13.5209 4.19707 13.0658 4.38564C12.6107 4.5742 12.1972 4.85058 11.849 5.19899L10.9655 6.08246C10.6401 6.4079 10.1124 6.4079 9.78698 6.08246L8.90365 5.19913C8.20019 4.49566 7.24609 4.10046 6.25124 4.10046C5.25639 4.10046 4.30229 4.49566 3.59883 5.19913C2.89536 5.90259 2.50016 6.85669 2.50016 7.85154C2.50016 8.84638 2.89536 9.80049 3.59883 10.5039L10.3762 17.2814L17.1536 10.5039C17.5021 10.1557 17.7786 9.74209 17.9671 9.28701C18.1557 8.83192 18.2528 8.34414 18.2528 7.85154C18.2528 7.35893 18.1557 6.87115 17.9671 6.41607C17.7786 5.96098 17.5022 5.54751 17.1538 5.19927C16.8055 4.85086 16.3918 4.5742 15.9367 4.38564C15.4816 4.19707 14.9938 4.10002 14.5012 4.10002Z" fill="#00084A"/>
</svg>
