<svg width="20" height="21" viewBox="0 0 20 21" fill="none" xmlns="http://www.w3.org/2000/svg">
<path d="M2.91647 19.0999C2.49981 19.0999 2.08314 19.0165 1.66647 18.7665C0.499806 18.0999 0.0831394 16.5165 0.749806 15.3499L7.83314 3.51652C8.08314 3.18319 8.33314 2.84985 8.66647 2.68319C9.24981 2.34985 9.91647 2.26652 10.5831 2.43319C11.2498 2.59985 11.7498 3.01652 12.1665 3.59985L19.1665 15.3499C19.4165 15.7665 19.4998 16.1832 19.4998 16.5999C19.4998 17.2665 19.2498 17.9332 18.7498 18.3499C18.3331 18.8499 17.7498 19.0999 17.0831 19.0999H2.91647ZM9.24981 4.43319L2.24981 16.1832C1.99981 16.5999 2.16647 17.0999 2.58314 17.3499C2.66647 17.4332 2.83314 17.4332 2.91647 17.4332H16.9998C17.2498 17.4332 17.4165 17.3499 17.5831 17.1832C17.7498 17.0165 17.8331 16.8499 17.8331 16.5999C17.8331 16.4332 17.8331 16.3499 17.7498 16.1832L10.7498 4.43319C10.4998 4.01652 9.99981 3.93319 9.58314 4.09985C9.41647 4.18319 9.33314 4.26652 9.24981 4.43319Z" fill="#BABABA"/>
<path d="M9.99981 12.4332C9.49981 12.4332 9.16647 12.0999 9.16647 11.5999V8.26652C9.16647 7.76652 9.49981 7.43319 9.99981 7.43319C10.4998 7.43319 10.8331 7.76652 10.8331 8.26652V11.5999C10.8331 12.0999 10.4998 12.4332 9.99981 12.4332Z" fill="#BABABA"/>
<path d="M9.99981 15.7665C9.74981 15.7665 9.58314 15.6832 9.41647 15.5165C9.24981 15.3499 9.16647 15.1832 9.16647 14.9332C9.16647 14.8499 9.16647 14.6832 9.24981 14.5999C9.33314 14.5165 9.33314 14.4332 9.41647 14.3499C9.49981 14.2665 9.58314 14.1832 9.66647 14.1832C9.83314 14.0999 9.99981 14.0999 10.1665 14.0999C10.2498 14.0999 10.2498 14.0999 10.3331 14.1832C10.4165 14.1832 10.4165 14.1832 10.4998 14.2665C10.4998 14.2665 10.5831 14.3499 10.6665 14.3499C10.7498 14.4332 10.8331 14.5165 10.8331 14.5999C10.8331 14.6832 10.9165 14.8499 10.9165 14.9332C10.9165 15.1832 10.8331 15.3499 10.6665 15.5165C10.4165 15.6832 10.2498 15.7665 9.99981 15.7665Z" fill="#BABABA"/>
</svg>
