<svg width="131" height="49" viewBox="0 0 131 49" fill="none" xmlns="http://www.w3.org/2000/svg">
<rect x="1" y="1" width="128.199" height="47" fill="#FFCB1D"/>
<path d="M32.5595 15.86V33.56H34.3995V24.26H37.1995V22.74H34.3995V15.86H32.5595ZM21.5195 29.2H22.9195C26.1795 29.2 28.5195 29.1 31.2195 28.6L31.0195 27.06C28.5195 27.54 26.3395 27.66 23.3195 27.66V19.06H29.7195V17.6H21.5195V29.2ZM46.2 16.28C42.38 16.28 39.96 17.52 39.96 19.64C39.96 21.74 42.38 22.98 46.2 22.98C50.04 22.98 52.46 21.74 52.46 19.64C52.46 17.52 50.04 16.28 46.2 16.28ZM38.24 25.84H54.18V24.38H38.24V25.84ZM40.18 33.3H52.24V27.46H40.18V33.3ZM41.84 19.64C41.84 18.38 43.5 17.7 46.2 17.7C48.92 17.7 50.58 18.38 50.58 19.64C50.58 20.84 48.92 21.54 46.2 21.54C43.5 21.54 41.84 20.84 41.84 19.64ZM41.96 31.84V28.92H50.46V31.84H41.96Z" fill="#00084A"/>
<path d="M65 27.6388L110.199 27.6389L103.641 21.3604" stroke="#00084A" stroke-width="2" stroke-linecap="round"/>
<rect x="1" y="1" width="128.199" height="47" stroke="#00084A" stroke-width="2"/>
</svg>
