<svg width="131" height="50" viewBox="0 0 131 50" fill="none" xmlns="http://www.w3.org/2000/svg">
<rect x="1" y="1.75391" width="128.199" height="47" fill="#D9D9D9"/>
<path d="M65.1992 28.3928L19.9999 28.3928L26.5585 22.1143" stroke="#00084A" stroke-width="2" stroke-linecap="round"/>
<path d="M88.5988 16.6139V34.3139H90.4188V16.6139H88.5988ZM76.5588 24.1539C76.5588 27.9339 78.4388 30.3539 81.0788 30.3539C83.6988 30.3539 85.5988 27.9339 85.5988 24.1539C85.5988 20.3539 83.6988 17.9739 81.0788 17.9739C78.4388 17.9739 76.5588 20.3539 76.5588 24.1539ZM78.3188 24.1539C78.3188 21.3539 79.4588 19.6139 81.0788 19.6139C82.6988 19.6139 83.8388 21.3539 83.8388 24.1539C83.8388 26.9539 82.6988 28.7139 81.0788 28.7139C79.4588 28.7139 78.3188 26.9539 78.3188 24.1539ZM102.799 21.4339V22.9339H106.179V29.5539H107.999V16.6539H106.179V21.4339H102.799ZM93.4392 25.9339L94.3792 27.3939C96.4792 26.6339 98.0192 25.0539 98.7792 23.1139C99.5392 24.8739 100.999 26.2939 102.979 26.9939L103.879 25.5539C101.279 24.6539 99.6592 22.4339 99.6592 20.2139V19.4939H103.439V18.0139H93.9992V19.4939H97.8392V20.2339C97.8392 22.6739 96.1192 24.9939 93.4392 25.9339ZM96.6392 33.9139H108.479V32.4139H98.4592V28.4339H96.6392V33.9139Z" fill="#00084A"/>
<rect x="1" y="1.75391" width="128.199" height="47" stroke="#00084A" stroke-width="2"/>
</svg>
