<svg width="332" height="102" viewBox="0 0 332 102" fill="none" xmlns="http://www.w3.org/2000/svg">
<path d="M66.75 36H280.75" stroke="#D9D9D9" stroke-width="2" stroke-linecap="round" stroke-dasharray="4 4"/>
<circle cx="41.25" cy="35" r="34" fill="#FFB600" stroke="#00084A" stroke-width="2"/>
<path d="M44.066 23.328H39.206L32.438 26.1L34.13 30.672L39.17 28.62V49.644L44.066 49.716V23.328Z" fill="#00084A"/>
<g clip-path="url(#clip0_678_716)">
<path d="M55.9899 22.7533C55.9631 27.7533 53.4631 27.7399 53.4899 22.7399C48.4899 22.7131 48.5033 20.2131 53.5033 20.2399C53.5301 15.2399 56.0301 15.2533 56.0033 20.2533C61.0033 20.2801 60.9899 22.7801 55.9899 22.7533Z" fill="#00084A"/>
</g>
<circle cx="173.75" cy="35" r="27.5" fill="#D9D9D9"/>
<circle cx="298.75" cy="35" r="27.5" fill="#D9D9D9"/>
<path d="M166.986 41.2486V44.6086H180.146V41.2486H172.138C175.722 38.3086 179.838 35.0326 179.838 30.8046C179.838 26.4366 176.31 23.9726 173.146 23.9726C171.326 23.9726 168.05 24.8686 166.454 28.4246L169.506 29.7966C170.43 27.7806 171.942 27.3326 173.146 27.3326C174.994 27.3326 176.478 28.3686 176.478 30.8046C176.478 34.1366 171.102 37.3006 166.986 41.2486Z" fill="white"/>
<path d="M302.374 34.0246C304.026 33.0166 305.23 31.4486 305.23 29.5726C305.23 26.3526 302.542 24.0006 298.678 24.0006C294.758 24.0006 292.07 26.3526 292.07 29.8246H295.43C295.43 28.4806 296.354 27.2486 298.678 27.2486C300.974 27.2486 302.01 28.4806 302.01 29.7966C302.01 31.1686 300.918 32.5406 298.594 32.5406H297.11V35.5366H298.538C301.366 35.5366 302.318 37.0486 302.318 38.5886C302.318 40.1006 301.114 41.5286 298.482 41.5286C295.878 41.5286 294.814 40.1006 294.814 38.5886H291.454C291.454 42.2566 294.226 44.7766 298.482 44.7766C302.766 44.7766 305.566 42.2566 305.566 38.8406C305.566 36.7966 304.166 35.0606 302.374 34.0246Z" fill="white"/>
<path d="M1.74 84.324V85.872H3.162V90.894C2.514 90.912 1.902 90.912 1.344 90.912L1.56 92.496C4.242 92.496 7.932 92.406 11.064 91.884L10.956 90.462C10.29 90.552 9.588 90.606 8.886 90.678V85.872H10.308V84.324H1.74ZM3.72 98.634H14.52V97.068H5.646V93.612H3.72V98.634ZM5.034 90.858V85.872H7.05V90.786C6.366 90.822 5.7 90.84 5.034 90.858ZM11.946 94.728H13.872V89.202H16.104V87.6H13.872V82.956H11.946V94.728ZM28.3804 82.938V89.148H26.6704V83.244H24.8704V98.184H26.6704V90.714H28.3804V98.94H30.2344V82.938H28.3804ZM17.0764 94.818H23.2864V84.666H17.0764V94.818ZM18.8764 93.306V86.196H21.4864V93.306H18.8764ZM32.0348 84.504V86.124H35.5088V87.51C35.5088 90.174 33.9248 93.18 31.4408 94.386L32.5568 95.898C34.3748 95.016 35.7608 93.126 36.4808 90.93C37.2008 92.928 38.5328 94.656 40.3328 95.502L41.4128 93.972C38.9108 92.82 37.4168 89.976 37.4168 87.51V86.124H40.7468V84.504H32.0348ZM42.2408 98.94H44.1848V90.804H46.6328V89.202H44.1848V82.938H42.2408V98.94ZM59.1337 86.934V88.518H61.8877V92.442H63.8317V82.938H61.8877V86.934H59.1337ZM50.5117 90.858L51.5017 92.406C53.3917 91.74 54.7237 90.354 55.4257 88.626C56.1097 90.138 57.3697 91.362 59.1337 91.974L60.0877 90.444C57.6397 89.616 56.3617 87.636 56.3617 85.674V85.548H59.6377V84H51.0697V85.548H54.3997V85.674C54.3997 87.834 53.0317 89.976 50.5117 90.858ZM53.0497 95.916C53.0497 97.842 55.1197 98.94 58.4857 98.94C61.8337 98.94 63.8857 97.842 63.8857 95.916C63.8857 94.008 61.8337 92.874 58.4857 92.874C55.1197 92.874 53.0497 94.008 53.0497 95.916ZM54.9937 95.916C54.9937 94.89 56.2537 94.35 58.4857 94.35C60.6997 94.35 61.9597 94.89 61.9597 95.916C61.9597 96.924 60.6997 97.464 58.4857 97.464C56.2537 97.464 54.9937 96.924 54.9937 95.916ZM65.7401 95.412V96.996H80.2301V95.412H73.9301V92.244H78.5921V84H76.6841V86.628H69.2681V84H67.3601V92.244H72.0041V95.412H65.7401ZM69.2681 90.714V88.158H76.6841V90.714H69.2681Z" fill="#00084A"/>
<path d="M142.389 84.432V85.764H143.901V91.02C143.217 91.02 142.569 91.038 141.975 91.038L142.173 92.388C144.855 92.388 148.563 92.316 151.695 91.812L151.587 90.588C150.885 90.678 150.129 90.75 149.373 90.804V85.764H150.903V84.432H142.389ZM144.369 98.544H155.007V97.194H145.989V93.594H144.369V98.544ZM145.485 90.984V85.764H147.807V90.894C147.033 90.93 146.241 90.966 145.485 90.984ZM152.667 94.692H154.323V89.112H156.609V87.744H154.323V83.01H152.667V94.692ZM169.101 82.992V89.238H167.139V83.334H165.591V98.094H167.139V90.57H169.101V98.868H170.667V82.992H169.101ZM157.707 94.674H163.791V84.774H157.707V94.674ZM159.237 93.396V86.088H162.261V93.396H159.237ZM183.42 89.13V90.462H187.416V92.424H189.054V82.992H187.416V85.836H183.978C184.086 85.296 184.14 84.738 184.14 84.162H176.958V85.494H182.358C182.088 88.104 179.91 90.12 176.13 91.2L176.778 92.496C180.198 91.506 182.574 89.688 183.582 87.15H187.416V89.13H183.42ZM178.578 95.718C178.578 97.626 180.63 98.796 183.87 98.796C187.074 98.796 189.126 97.626 189.126 95.718C189.126 93.774 187.074 92.604 183.87 92.604C180.63 92.604 178.578 93.774 178.578 95.718ZM180.216 95.718C180.216 94.548 181.62 93.9 183.87 93.9C186.12 93.9 187.506 94.548 187.506 95.718C187.506 96.834 186.12 97.5 183.87 97.5C181.62 97.5 180.216 96.834 180.216 95.718ZM202.591 83.01V87.78H200.107V89.13H202.591V92.604H204.229V83.01H202.591ZM191.161 85.908H200.359V84.594H196.579V82.848H194.941V84.594H191.161V85.908ZM192.043 89.49C192.043 91.182 193.609 92.316 195.769 92.316C197.929 92.316 199.459 91.182 199.459 89.49C199.459 87.816 197.929 86.646 195.769 86.646C193.609 86.646 192.043 87.816 192.043 89.49ZM193.627 89.49C193.627 88.518 194.509 87.888 195.769 87.888C196.993 87.888 197.875 88.518 197.875 89.49C197.875 90.444 196.993 91.092 195.769 91.092C194.509 91.092 193.627 90.444 193.627 89.49ZM193.861 98.67H204.229V93.396H193.861V98.67ZM195.481 97.356V94.728H202.627V97.356H195.481Z" fill="#BDBDBD"/>
<path d="M267.389 84.432V85.764H268.901V91.02C268.217 91.02 267.569 91.038 266.975 91.038L267.173 92.388C269.855 92.388 273.563 92.316 276.695 91.812L276.587 90.588C275.885 90.678 275.129 90.75 274.373 90.804V85.764H275.903V84.432H267.389ZM269.369 98.544H280.007V97.194H270.989V93.594H269.369V98.544ZM270.485 90.984V85.764H272.807V90.894C272.033 90.93 271.241 90.966 270.485 90.984ZM277.667 94.692H279.323V89.112H281.609V87.744H279.323V83.01H277.667V94.692ZM294.101 82.992V89.238H292.139V83.334H290.591V98.094H292.139V90.57H294.101V98.868H295.667V82.992H294.101ZM282.707 94.674H288.791V84.774H282.707V94.674ZM284.237 93.396V86.088H287.261V93.396H284.237ZM300.95 90.606V91.938H307.304V93.666H302.696V98.67H313.55V93.666H308.942V91.938H315.296V90.606H300.95ZM302.264 84.828H304.568V87.924H302.336V89.256H313.874V87.924H311.642V84.828H313.946V83.496H302.264V84.828ZM304.298 97.356V94.962H311.948V97.356H304.298ZM306.224 87.924V84.828H310.004V87.924H306.224ZM317.961 83.676V89.112H322.497V90.984H316.143V92.298H330.489V90.984H324.117V89.112H328.653V83.676H317.961ZM317.745 95.16H327.087V98.886H328.725V93.828H317.745V95.16ZM319.563 87.798V84.972H327.033V87.798H319.563Z" fill="#BDBDBD"/>
<defs>
<clipPath id="clip0_678_716">
<rect width="10" height="10" fill="white" transform="translate(49.75 16.5)"/>
</clipPath>
</defs>
</svg>
