<svg width="338" height="102" viewBox="0 0 338 102" fill="none" xmlns="http://www.w3.org/2000/svg">
<path d="M56.2177 36H286.75" stroke="#D9D9D9" stroke-width="2" stroke-linecap="round" stroke-dasharray="4 4"/>
<circle cx="39.75" cy="35" r="27.5" fill="#D9D9D9"/>
<path d="M42.342 24.2806H39.066L35.258 25.6526L36.322 28.8166L39.066 27.8926V44.4966H42.342V24.2806Z" fill="white"/>
<circle cx="172.25" cy="35" r="34" fill="#FFB600" stroke="#00084A" stroke-width="2"/>
<path d="M162.554 44.424L162.59 44.46V49.32H179.726V44.424H170.186C174.614 40.968 179.366 37.188 179.366 31.86C179.366 26.748 174.65 23.22 170.51 23.22C168.278 23.22 163.814 24.336 161.69 29.088L166.154 31.104C167.27 28.62 169.106 28.116 170.51 28.116C172.634 28.116 174.47 29.484 174.47 31.86C174.47 36.036 167.846 39.384 162.554 44.424Z" fill="#00084A"/>
<g clip-path="url(#clip0_678_715)">
<path d="M186.99 22.7533C186.963 27.7533 184.463 27.7399 184.49 22.7399C179.49 22.7131 179.503 20.2131 184.503 20.2399C184.53 15.2399 187.03 15.2533 187.003 20.2533C192.003 20.2801 191.99 22.7801 186.99 22.7533Z" fill="#00084A"/>
</g>
<circle cx="304.75" cy="35" r="27.5" fill="#D9D9D9"/>
<circle cx="304.75" cy="35" r="27.5" fill="#D9D9D9"/>
<path d="M308.374 34.0246C310.026 33.0166 311.23 31.4486 311.23 29.5726C311.23 26.3526 308.542 24.0006 304.678 24.0006C300.758 24.0006 298.07 26.3526 298.07 29.8246H301.43C301.43 28.4806 302.354 27.2486 304.678 27.2486C306.974 27.2486 308.01 28.4806 308.01 29.7966C308.01 31.1686 306.918 32.5406 304.594 32.5406H303.11V35.5366H304.538C307.366 35.5366 308.318 37.0486 308.318 38.5886C308.318 40.1006 307.114 41.5286 304.482 41.5286C301.878 41.5286 300.814 40.1006 300.814 38.5886H297.454C297.454 42.2566 300.226 44.7766 304.482 44.7766C308.766 44.7766 311.566 42.2566 311.566 38.8406C311.566 36.7966 310.166 35.0606 308.374 34.0246Z" fill="white"/>
<path d="M1.848 84.432V85.764H3.36V91.02C2.676 91.02 2.028 91.038 1.434 91.038L1.632 92.388C4.314 92.388 8.022 92.316 11.154 91.812L11.046 90.588C10.344 90.678 9.588 90.75 8.832 90.804V85.764H10.362V84.432H1.848ZM3.828 98.544H14.466V97.194H5.448V93.594H3.828V98.544ZM4.944 90.984V85.764H7.266V90.894C6.492 90.93 5.7 90.966 4.944 90.984ZM12.126 94.692H13.782V89.112H16.068V87.744H13.782V83.01H12.126V94.692ZM28.5604 82.992V89.238H26.5984V83.334H25.0504V98.094H26.5984V90.57H28.5604V98.868H30.1264V82.992H28.5604ZM17.1664 94.674H23.2504V84.774H17.1664V94.674ZM18.6964 93.396V86.088H21.7204V93.396H18.6964ZM32.0888 84.594V85.962H35.6528V87.726C35.6528 90.39 33.8708 93.396 31.5308 94.548L32.4848 95.844C34.2668 94.944 35.7428 92.964 36.4628 90.714C37.1828 92.784 38.5868 94.584 40.3688 95.448L41.3048 94.152C38.9288 93.036 37.2728 90.21 37.2728 87.726V85.962H40.6928V84.594H32.0888ZM42.4028 98.886H44.0588V90.714H46.5788V89.346H44.0588V83.01H42.4028V98.886ZM59.0797 87.06V88.41H62.0677V92.442H63.7057V83.01H62.0677V87.06H59.0797ZM50.6197 91.038L51.4477 92.352C53.3377 91.65 54.7417 90.21 55.4257 88.428C56.1097 89.994 57.4057 91.272 59.1697 91.902L59.9977 90.606C57.6397 89.796 56.1997 87.834 56.1997 85.818V85.458H59.6017V84.108H51.1057V85.458H54.5617V85.818C54.5617 88.05 53.0317 90.174 50.6197 91.038ZM53.1217 95.898C53.1217 97.788 55.1377 98.868 58.4497 98.868C61.7437 98.868 63.7597 97.788 63.7597 95.898C63.7597 94.026 61.7437 92.91 58.4497 92.91C55.1377 92.91 53.1217 94.026 53.1217 95.898ZM54.7597 95.898C54.7597 94.8 56.1277 94.17 58.4497 94.17C60.7537 94.17 62.1397 94.8 62.1397 95.898C62.1397 96.978 60.7537 97.608 58.4497 97.608C56.1277 97.608 54.7597 96.978 54.7597 95.898ZM65.7941 95.52V96.888H80.1761V95.52H73.7861V92.226H78.5021V84.09H76.8641V86.826H69.0881V84.09H67.4501V92.226H72.1481V95.52H65.7941ZM69.0881 90.912V88.158H76.8641V90.912H69.0881Z" fill="#BDBDBD"/>
<path d="M141.781 84.324V85.872H143.203V90.894C142.555 90.912 141.943 90.912 141.385 90.912L141.601 92.496C144.283 92.496 147.973 92.406 151.105 91.884L150.997 90.462C150.331 90.552 149.629 90.606 148.927 90.678V85.872H150.349V84.324H141.781ZM143.761 98.634H154.561V97.068H145.687V93.612H143.761V98.634ZM145.075 90.858V85.872H147.091V90.786C146.407 90.822 145.741 90.84 145.075 90.858ZM151.987 94.728H153.913V89.202H156.145V87.6H153.913V82.956H151.987V94.728ZM168.421 82.938V89.148H166.711V83.244H164.911V98.184H166.711V90.714H168.421V98.94H170.275V82.938H168.421ZM157.117 94.818H163.327V84.666H157.117V94.818ZM158.917 93.306V86.196H161.527V93.306H158.917ZM182.938 88.968V90.516H186.736V92.316H188.68V82.938H186.736V85.656H183.55C183.64 85.152 183.676 84.63 183.676 84.072H176.404V85.62H181.57C181.282 88.032 179.302 89.958 175.54 90.984L176.296 92.514C179.77 91.524 182.11 89.742 183.118 87.186H186.736V88.968H182.938ZM178.06 95.682C178.06 97.644 180.166 98.868 183.424 98.868C186.664 98.868 188.77 97.644 188.77 95.682C188.77 93.702 186.664 92.496 183.424 92.496C180.166 92.496 178.06 93.702 178.06 95.682ZM179.986 95.682C179.986 94.602 181.282 94.008 183.424 94.008C185.566 94.008 186.862 94.602 186.862 95.682C186.862 96.744 185.566 97.356 183.424 97.356C181.282 97.356 179.986 96.744 179.986 95.682ZM201.929 82.938V87.69H199.643V89.274H201.929V92.604H203.855V82.938H201.929ZM190.607 85.98H199.913V84.45H196.223V82.794H194.297V84.45H190.607V85.98ZM191.489 89.508C191.489 91.2 193.073 92.37 195.269 92.37C197.483 92.37 199.049 91.2 199.049 89.508C199.049 87.816 197.483 86.628 195.269 86.628C193.073 86.628 191.489 87.816 191.489 89.508ZM193.307 98.742H203.855V93.36H193.307V98.742ZM193.343 89.508C193.343 88.608 194.135 88.086 195.269 88.086C196.385 88.086 197.177 88.608 197.177 89.508C197.177 90.39 196.385 90.93 195.269 90.93C194.135 90.93 193.343 90.39 193.343 89.508ZM195.215 97.212V94.89H201.965V97.212H195.215Z" fill="#00084A"/>
<path d="M273.389 84.432V85.764H274.901V91.02C274.217 91.02 273.569 91.038 272.975 91.038L273.173 92.388C275.855 92.388 279.563 92.316 282.695 91.812L282.587 90.588C281.885 90.678 281.129 90.75 280.373 90.804V85.764H281.903V84.432H273.389ZM275.369 98.544H286.007V97.194H276.989V93.594H275.369V98.544ZM276.485 90.984V85.764H278.807V90.894C278.033 90.93 277.241 90.966 276.485 90.984ZM283.667 94.692H285.323V89.112H287.609V87.744H285.323V83.01H283.667V94.692ZM300.101 82.992V89.238H298.139V83.334H296.591V98.094H298.139V90.57H300.101V98.868H301.667V82.992H300.101ZM288.707 94.674H294.791V84.774H288.707V94.674ZM290.237 93.396V86.088H293.261V93.396H290.237ZM306.95 90.606V91.938H313.304V93.666H308.696V98.67H319.55V93.666H314.942V91.938H321.296V90.606H306.95ZM308.264 84.828H310.568V87.924H308.336V89.256H319.874V87.924H317.642V84.828H319.946V83.496H308.264V84.828ZM310.298 97.356V94.962H317.948V97.356H310.298ZM312.224 87.924V84.828H316.004V87.924H312.224ZM323.961 83.676V89.112H328.497V90.984H322.143V92.298H336.489V90.984H330.117V89.112H334.653V83.676H323.961ZM323.745 95.16H333.087V98.886H334.725V93.828H323.745V95.16ZM325.563 87.798V84.972H333.033V87.798H325.563Z" fill="#BDBDBD"/>
<defs>
<clipPath id="clip0_678_715">
<rect width="10" height="10" fill="white" transform="translate(180.75 16.5)"/>
</clipPath>
</defs>
</svg>
