<svg width="332" height="102" viewBox="0 0 332 102" fill="none" xmlns="http://www.w3.org/2000/svg">
<path d="M72.23 36H286.23" stroke="#D9D9D9" stroke-width="2" stroke-linecap="round" stroke-dasharray="4 4"/>
<circle cx="39.23" cy="35" r="27.5" fill="#D9D9D9"/>
<path d="M41.822 24.2806H38.546L34.738 25.6526L35.802 28.8166L38.546 27.8926V44.4966H41.822V24.2806Z" fill="white"/>
<circle cx="164.23" cy="35" r="27.5" fill="#D9D9D9"/>
<path d="M157.466 41.2486V44.6086H170.626V41.2486H162.618C166.202 38.3086 170.318 35.0326 170.318 30.8046C170.318 26.4366 166.79 23.9726 163.626 23.9726C161.806 23.9726 158.53 24.8686 156.934 28.4246L159.986 29.7966C160.91 27.7806 162.422 27.3326 163.626 27.3326C165.474 27.3326 166.958 28.3686 166.958 30.8046C166.958 34.1366 161.582 37.3006 157.466 41.2486Z" fill="white"/>
<circle cx="296.73" cy="35" r="34" fill="#FFB600" stroke="#00084A" stroke-width="2"/>
<path d="M301.534 36.036C303.694 34.74 305.35 32.724 305.35 30.312C305.35 26.208 301.966 23.184 296.71 23.184C291.346 23.184 287.998 26.208 287.998 30.744H292.822C292.822 29.196 293.794 27.684 296.71 27.684C299.626 27.684 300.922 29.196 300.922 30.708C300.922 32.328 299.41 33.948 296.602 33.948H294.73V38.196H296.53C299.986 38.196 301.318 39.996 301.318 41.796C301.318 43.56 299.806 45.324 296.458 45.324C293.146 45.324 291.958 43.56 291.958 41.76H287.17C287.17 46.584 290.59 49.824 296.458 49.824C302.29 49.824 305.782 46.584 305.782 42.192C305.782 39.564 303.874 37.368 301.534 36.036Z" fill="#00084A"/>
<g clip-path="url(#clip0_678_1005)">
<path d="M311.47 22.7533C311.443 27.7533 308.943 27.7399 308.97 22.7399C303.97 22.7131 303.983 20.2131 308.983 20.2399C309.01 15.2399 311.51 15.2533 311.483 20.2533C316.483 20.2801 316.47 22.7801 311.47 22.7533Z" fill="#00084A"/>
</g>
<path d="M266.761 84.324V85.872H268.183V90.894C267.535 90.912 266.923 90.912 266.365 90.912L266.581 92.496C269.263 92.496 272.953 92.406 276.085 91.884L275.977 90.462C275.311 90.552 274.609 90.606 273.907 90.678V85.872H275.329V84.324H266.761ZM268.741 98.634H279.541V97.068H270.667V93.612H268.741V98.634ZM270.055 90.858V85.872H272.071V90.786C271.387 90.822 270.721 90.84 270.055 90.858ZM276.967 94.728H278.893V89.202H281.125V87.6H278.893V82.956H276.967V94.728ZM293.401 82.938V89.148H291.691V83.244H289.891V98.184H291.691V90.714H293.401V98.94H295.255V82.938H293.401ZM282.097 94.818H288.307V84.666H282.097V94.818ZM283.897 93.306V86.196H286.507V93.306H283.897ZM300.376 90.534V92.082H306.64V93.63H302.104V98.742H313.084V93.63H308.566V92.082H314.83V90.534H300.376ZM301.672 84.972H303.868V87.78H301.762V89.328H313.408V87.78H311.32V84.972H313.516V83.424H301.672V84.972ZM303.994 97.212V95.16H311.194V97.212H303.994ZM305.812 87.78V84.972H309.376V87.78H305.812ZM317.387 83.604V89.148H321.815V90.876H315.569V92.424H330.023V90.876H323.741V89.148H328.187V83.604H317.387ZM317.171 95.34H326.333V98.94H328.259V93.792H317.171V95.34ZM319.277 87.618V85.116H326.279V87.618H319.277Z" fill="#00084A"/>
<path d="M132.869 84.432V85.764H134.381V91.02C133.697 91.02 133.049 91.038 132.455 91.038L132.653 92.388C135.335 92.388 139.043 92.316 142.175 91.812L142.067 90.588C141.365 90.678 140.609 90.75 139.853 90.804V85.764H141.383V84.432H132.869ZM134.849 98.544H145.487V97.194H136.469V93.594H134.849V98.544ZM135.965 90.984V85.764H138.287V90.894C137.513 90.93 136.721 90.966 135.965 90.984ZM143.147 94.692H144.803V89.112H147.089V87.744H144.803V83.01H143.147V94.692ZM159.581 82.992V89.238H157.619V83.334H156.071V98.094H157.619V90.57H159.581V98.868H161.147V82.992H159.581ZM148.187 94.674H154.271V84.774H148.187V94.674ZM149.717 93.396V86.088H152.741V93.396H149.717ZM173.9 89.13V90.462H177.896V92.424H179.534V82.992H177.896V85.836H174.458C174.566 85.296 174.62 84.738 174.62 84.162H167.438V85.494H172.838C172.568 88.104 170.39 90.12 166.61 91.2L167.258 92.496C170.678 91.506 173.054 89.688 174.062 87.15H177.896V89.13H173.9ZM169.058 95.718C169.058 97.626 171.11 98.796 174.35 98.796C177.554 98.796 179.606 97.626 179.606 95.718C179.606 93.774 177.554 92.604 174.35 92.604C171.11 92.604 169.058 93.774 169.058 95.718ZM170.696 95.718C170.696 94.548 172.1 93.9 174.35 93.9C176.6 93.9 177.986 94.548 177.986 95.718C177.986 96.834 176.6 97.5 174.35 97.5C172.1 97.5 170.696 96.834 170.696 95.718ZM193.071 83.01V87.78H190.587V89.13H193.071V92.604H194.709V83.01H193.071ZM181.641 85.908H190.839V84.594H187.059V82.848H185.421V84.594H181.641V85.908ZM182.523 89.49C182.523 91.182 184.089 92.316 186.249 92.316C188.409 92.316 189.939 91.182 189.939 89.49C189.939 87.816 188.409 86.646 186.249 86.646C184.089 86.646 182.523 87.816 182.523 89.49ZM184.107 89.49C184.107 88.518 184.989 87.888 186.249 87.888C187.473 87.888 188.355 88.518 188.355 89.49C188.355 90.444 187.473 91.092 186.249 91.092C184.989 91.092 184.107 90.444 184.107 89.49ZM184.341 98.67H194.709V93.396H184.341V98.67ZM185.961 97.356V94.728H193.107V97.356H185.961Z" fill="#BDBDBD"/>
<path d="M1.36851 84.432V85.764H2.88051V91.02C2.19651 91.02 1.54851 91.038 0.954508 91.038L1.15251 92.388C3.83451 92.388 7.54251 92.316 10.6745 91.812L10.5665 90.588C9.86451 90.678 9.10851 90.75 8.35251 90.804V85.764H9.88251V84.432H1.36851ZM3.34851 98.544H13.9865V97.194H4.96851V93.594H3.34851V98.544ZM4.46451 90.984V85.764H6.78651V90.894C6.01251 90.93 5.22051 90.966 4.46451 90.984ZM11.6465 94.692H13.3025V89.112H15.5885V87.744H13.3025V83.01H11.6465V94.692ZM28.0809 82.992V89.238H26.1189V83.334H24.5709V98.094H26.1189V90.57H28.0809V98.868H29.6469V82.992H28.0809ZM16.6869 94.674H22.7709V84.774H16.6869V94.674ZM18.2169 93.396V86.088H21.2409V93.396H18.2169ZM31.6094 84.594V85.962H35.1734V87.726C35.1734 90.39 33.3914 93.396 31.0514 94.548L32.0054 95.844C33.7874 94.944 35.2634 92.964 35.9834 90.714C36.7034 92.784 38.1074 94.584 39.8894 95.448L40.8254 94.152C38.4494 93.036 36.7934 90.21 36.7934 87.726V85.962H40.2134V84.594H31.6094ZM41.9234 98.886H43.5794V90.714H46.0994V89.346H43.5794V83.01H41.9234V98.886ZM58.6002 87.06V88.41H61.5882V92.442H63.2262V83.01H61.5882V87.06H58.6002ZM50.1402 91.038L50.9682 92.352C52.8582 91.65 54.2622 90.21 54.9462 88.428C55.6302 89.994 56.9262 91.272 58.6902 91.902L59.5182 90.606C57.1602 89.796 55.7202 87.834 55.7202 85.818V85.458H59.1222V84.108H50.6262V85.458H54.0822V85.818C54.0822 88.05 52.5522 90.174 50.1402 91.038ZM52.6422 95.898C52.6422 97.788 54.6582 98.868 57.9702 98.868C61.2642 98.868 63.2802 97.788 63.2802 95.898C63.2802 94.026 61.2642 92.91 57.9702 92.91C54.6582 92.91 52.6422 94.026 52.6422 95.898ZM54.2802 95.898C54.2802 94.8 55.6482 94.17 57.9702 94.17C60.2742 94.17 61.6602 94.8 61.6602 95.898C61.6602 96.978 60.2742 97.608 57.9702 97.608C55.6482 97.608 54.2802 96.978 54.2802 95.898ZM65.3146 95.52V96.888H79.6966V95.52H73.3066V92.226H78.0226V84.09H76.3846V86.826H68.6086V84.09H66.9706V92.226H71.6686V95.52H65.3146ZM68.6086 90.912V88.158H76.3846V90.912H68.6086Z" fill="#BDBDBD"/>
<defs>
<clipPath id="clip0_678_1005">
<rect width="10" height="10" fill="white" transform="translate(305.23 16.5)"/>
</clipPath>
</defs>
</svg>
