<svg width="76" height="49" viewBox="0 0 76 49" fill="none" xmlns="http://www.w3.org/2000/svg">
<rect x="1.89014" y="1" width="73" height="47" fill="#FFCB1D"/>
<path d="M26.9697 16.68C24.4297 16.68 22.6097 18.08 22.6097 20.18C22.6097 22.02 24.0297 23.32 26.0897 23.6V25.3C24.4697 25.36 22.9297 25.36 21.6097 25.36L21.8497 26.84C24.8497 26.84 28.9897 26.8 32.6297 26.12L32.4897 24.78C31.0497 25 29.4897 25.14 27.9297 25.22V23.6C29.9497 23.28 31.3297 22 31.3297 20.18C31.3297 18.08 29.5097 16.68 26.9697 16.68ZM24.1097 33.14H36.0097V31.66H25.9497V28.24H24.1097V33.14ZM24.3297 20.18C24.3297 18.92 25.3897 18.08 26.9697 18.08C28.5497 18.08 29.6297 18.92 29.6297 20.18C29.6297 21.46 28.5497 22.3 26.9697 22.3C25.3897 22.3 24.3297 21.46 24.3297 20.18ZM33.5697 29.38H35.3897V23.26H37.9097V21.76H35.3897V15.9H33.5697V29.38ZM39.1301 29.9V31.4H55.1101V29.9H50.9101V26.7H53.5901V25.22H42.8901V22.58H53.1901V17.14H41.0501V18.62H51.3701V21.14H41.0901V26.7H43.5101V29.9H39.1301ZM45.3101 29.9V26.7H49.1301V29.9H45.3101Z" fill="#00084A"/>
<rect x="1.89014" y="1" width="73" height="47" stroke="#00084A" stroke-width="2"/>
</svg>
