<svg width="38" height="25" viewBox="0 0 38 25" fill="none" xmlns="http://www.w3.org/2000/svg">
<g clip-path="url(#clip0_108_752)">
<path d="M32.1114 24.7153L12.1385 18.0559L10.8057 16.7216V8.70904L12.1385 7.39155L32.1114 0.715332L33.4442 2.0496V23.3811L32.1114 24.7153Z" fill="#E5E5E5"/>
<path d="M10.2857 16.7216L12.1377 18.0747V23.3811C12.1377 23.7394 12.0073 24.0531 11.7393 24.3164C11.4734 24.5847 11.1629 24.7153 10.8049 24.7153H8.13717C7.76732 24.7153 7.45191 24.5875 7.19093 24.3262C6.93274 24.0678 6.80225 23.752 6.80225 23.3811V16.7216H10.2857Z" fill="#AF0D1A"/>
<path d="M2.80101 18.0566C2.43116 18.0566 2.08505 17.9874 1.76475 17.8428C1.44236 17.7031 1.16254 17.5103 0.920394 17.2686C0.678252 17.0262 0.491238 16.7461 0.355862 16.4254C0.218392 16.1048 0.1521 15.7562 0.1521 15.3853V10.0433C0.1521 9.67307 0.218392 9.32658 0.355862 9.00314C0.491238 8.68529 0.678252 8.40237 0.920394 8.16067C1.16254 7.91826 1.44236 7.73105 1.76475 7.59553C2.08505 7.46 2.43116 7.39154 2.80101 7.39154H12.1399V18.0566H2.80101Z" fill="#E81224"/>
<path d="M34.7609 15.386H33.4448V10.044H34.7609C35.1307 10.044 35.4769 10.1153 35.7972 10.2578C36.1195 10.4003 36.3994 10.5903 36.6415 10.832C36.8837 11.0744 37.0756 11.3566 37.2151 11.6773C37.3575 11.9979 37.4287 12.3444 37.4287 12.7146C37.4287 13.0849 37.3575 13.4342 37.2151 13.7548C37.0756 14.0754 36.883 14.3556 36.6415 14.598C36.3994 14.8404 36.1195 15.0325 35.7972 15.1722C35.4769 15.3168 35.1307 15.386 34.7609 15.386Z" fill="#757575"/>
<path d="M34.7602 0.715332H32.1113V24.7146H34.7602V0.715332Z" fill="#CCCCCC"/>
</g>
<defs>
<clipPath id="clip0_108_752">
<rect width="37.2766" height="24" fill="white" transform="translate(0.1521 0.715332)"/>
</clipPath>
</defs>
</svg>
