<svg width="215" height="41" viewBox="0 0 215 41" fill="none" xmlns="http://www.w3.org/2000/svg">
<path d="M146.139 22.4148L191.338 22.4149L184.779 16.1364" stroke="#222222" stroke-linecap="round"/>
<path d="M24.4302 14.5089V15.8769H27.9942V17.6409C27.9942 20.3049 26.2122 23.3109 23.8722 24.4629L24.8262 25.7589C26.6082 24.8589 28.0842 22.8789 28.8042 20.6289C29.5242 22.6989 30.9282 24.4989 32.7102 25.3629L33.6462 24.0669C31.2702 22.9509 29.6142 20.1249 29.6142 17.6409V15.8769H33.0342V14.5089H24.4302ZM34.7442 28.8009H36.4002V20.6289H38.9202V19.2609H36.4002V12.9249H34.7442V28.8009ZM45.7606 18.5229V19.8729H48.2266V28.0089H49.7566V13.2489H48.2266V18.5229H45.7606ZM39.2986 24.2109L40.3066 25.4349C41.8366 24.4809 42.9346 22.7529 43.5106 20.7369C44.0686 22.5909 45.0766 24.1929 46.5346 25.0929L47.4706 23.8149C45.3646 22.5009 44.2846 19.8189 44.2846 17.2629V14.4009H42.7006V17.3169C42.7006 20.0349 41.5126 22.8789 39.2986 24.2109ZM51.4486 28.7829H53.0326V12.9069H51.4486V28.7829ZM66.263 12.9069V28.7829H67.901V12.9069H66.263ZM55.229 16.7589H64.715V15.4269H60.791V13.0869H59.153V15.4269H55.229V16.7589ZM56.039 21.6369C56.039 23.7969 57.695 25.3089 59.999 25.3089C62.285 25.3089 63.941 23.7969 63.941 21.6369C63.941 19.4769 62.285 17.9649 59.999 17.9649C57.695 17.9649 56.039 19.4769 56.039 21.6369ZM57.605 21.6369C57.605 20.2689 58.613 19.3149 59.999 19.3149C61.385 19.3149 62.375 20.2689 62.375 21.6369C62.375 23.0229 61.385 23.9589 59.999 23.9589C58.613 23.9589 57.605 23.0229 57.605 21.6369ZM74.0479 25.4349V26.8029H88.4299V25.4349H82.0399V22.1409H86.7559V14.0049H85.1179V16.7409H77.3419V14.0049H75.7039V22.1409H80.4019V25.4349H74.0479ZM77.3419 20.8269V18.0729H85.1179V20.8269H77.3419ZM100.886 12.8889V18.9189H97.9883V20.2509H100.886V28.8189H102.506V12.8889H100.886ZM89.9603 15.6969H95.4503V18.7029H89.9783V25.0389H91.2383C94.0283 25.0389 96.0983 24.9489 98.4563 24.5169L98.3123 23.1849C96.0803 23.5629 94.1723 23.6709 91.6163 23.6709V20.0169H97.0523V14.3649H89.9603V15.6969ZM115.395 12.8889V28.7829H117.069V20.6289H119.517V19.2609H117.069V12.8889H115.395ZM104.829 24.5709L105.747 25.8309C110.913 23.2389 112.929 19.1709 112.929 14.5989H105.603V15.9309H111.273C110.949 19.6569 108.789 22.5549 104.829 24.5709ZM131.577 12.9069V28.7829H133.233V12.9069H131.577ZM120.309 24.5889L121.173 25.8849C126.573 23.2749 128.535 19.2609 128.535 14.5989H121.065V15.9309H126.879C126.555 19.6569 124.521 22.5549 120.309 24.5889Z" fill="#222222"/>
<rect x="0.976196" y="0.914917" width="212.862" height="39" rx="19.5" stroke="#222222"/>
</svg>
