<svg width="28" height="36" viewBox="0 0 28 36" fill="none" xmlns="http://www.w3.org/2000/svg">
<path d="M2.73499 24.52L2.76299 24.548V28.328H16.091V24.52H8.67099C12.115 21.832 15.811 18.892 15.811 14.748C15.811 10.772 12.143 8.02802 8.92299 8.02802C7.18699 8.02802 3.71499 8.89602 2.06299 12.592L5.53499 14.16C6.40299 12.228 7.83099 11.836 8.92299 11.836C10.575 11.836 12.003 12.9 12.003 14.748C12.003 17.996 6.85099 20.6 2.73499 24.52Z" fill="#BABABA"/>
<g clip-path="url(#clip0_219_797)">
<path d="M24.5697 5.4707C24.5483 9.4707 22.5483 9.45998 22.5697 5.45998C18.5697 5.43853 18.5804 3.43853 22.5804 3.45998C22.6019 -0.540025 24.6019 -0.529301 24.5804 3.4707C28.5804 3.49215 28.5697 5.49215 24.5697 5.4707Z" fill="#BABABA"/>
</g>
<defs>
<clipPath id="clip0_219_797">
<rect width="8" height="8" fill="white" transform="translate(19.5778 0.468018)"/>
</clipPath>
</defs>
</svg>
