<svg width="28" height="36" viewBox="0 0 28 36" fill="none" xmlns="http://www.w3.org/2000/svg">
<path d="M13.0162 17.996C14.6962 16.988 15.9842 15.42 15.9842 13.544C15.9842 10.352 13.3522 8.00002 9.26424 8.00002C5.09224 8.00002 2.48824 10.352 2.48824 13.88H6.24024C6.24024 12.676 6.99624 11.5 9.26424 11.5C11.5322 11.5 12.5402 12.676 12.5402 13.852C12.5402 15.112 11.3642 16.372 9.18024 16.372H7.72424V19.676H9.12424C11.8122 19.676 12.8482 21.076 12.8482 22.476C12.8482 23.848 11.6722 25.22 9.06824 25.22C6.49224 25.22 5.56824 23.848 5.56824 22.448H1.84424C1.84424 26.2 4.50424 28.72 9.06824 28.72C13.6042 28.72 16.3202 26.2 16.3202 22.784C16.3202 20.74 14.8362 19.032 13.0162 17.996Z" fill="#EA8439"/>
<g clip-path="url(#clip0_219_801)">
<path d="M24.5697 5.4707C24.5483 9.4707 22.5483 9.45998 22.5697 5.45998C18.5697 5.43853 18.5804 3.43853 22.5804 3.45998C22.6019 -0.540025 24.6019 -0.529301 24.5804 3.4707C28.5804 3.49215 28.5697 5.49215 24.5697 5.4707Z" fill="#EA8439"/>
</g>
<defs>
<clipPath id="clip0_219_801">
<rect width="8" height="8" fill="white" transform="translate(19.5778 0.468018)"/>
</clipPath>
</defs>
</svg>
