<svg width="28" height="36" viewBox="0 0 28 36" fill="none" xmlns="http://www.w3.org/2000/svg">
<path d="M6.22854 19.9V19.844C7.01254 19.004 7.76854 18.696 8.97254 18.696C11.1285 18.696 12.6125 19.9 12.6125 22.084C12.6125 24.128 11.1005 25.444 8.97254 25.444C7.20854 25.444 5.83654 24.464 5.44454 22.784L1.74854 23.68C2.50454 26.928 5.75254 29.252 8.97254 29.252C12.8085 29.252 16.4205 26.116 16.4205 22.084C16.4205 17.856 12.7805 14.888 8.97254 14.888C8.07654 14.888 7.20854 15.028 6.39654 15.336L6.53654 12.032H14.7405V8.22402H2.84054L2.42054 19.732L6.17254 19.9H6.22854Z" fill="#00084A"/>
<g clip-path="url(#clip0_219_809)">
<path d="M24.5697 5.4707C24.5483 9.4707 22.5483 9.45998 22.5697 5.45998C18.5697 5.43853 18.5804 3.43853 22.5804 3.45998C22.6019 -0.540025 24.6019 -0.529301 24.5804 3.4707C28.5804 3.49215 28.5697 5.49215 24.5697 5.4707Z" fill="#00084A"/>
</g>
<defs>
<clipPath id="clip0_219_809">
<rect width="8" height="8" fill="white" transform="translate(19.5778 0.468018)"/>
</clipPath>
</defs>
</svg>
