<svg width="17" height="17" viewBox="0 0 17 17" fill="none" xmlns="http://www.w3.org/2000/svg">
<g clip-path="url(#clip0_313_766)">
<path fill-rule="evenodd" clip-rule="evenodd" d="M1.92716 8.00903C2.00002 8.13494 2.09662 8.2954 2.21628 8.48068C2.52362 8.95657 2.97878 9.58943 3.56969 10.2197C4.76368 11.4933 6.433 12.6757 8.5 12.6757C10.567 12.6757 12.2363 11.4933 13.4303 10.2197C14.0212 9.58943 14.4764 8.95657 14.7837 8.48068C14.9034 8.2954 15 8.13494 15.0728 8.00903C15 7.88312 14.9034 7.72267 14.7837 7.53738C14.4764 7.06149 14.0212 6.42864 13.4303 5.79833C12.2363 4.52474 10.567 3.34237 8.5 3.34237C6.433 3.34237 4.76368 4.52474 3.56969 5.79833C2.97878 6.42864 2.52362 7.06149 2.21628 7.53738C2.09662 7.72267 2.00002 7.88312 1.92716 8.00903ZM15.8333 8.00903C16.4296 7.71089 16.4295 7.71067 16.4294 7.71042L16.4283 7.70828L16.426 7.70373L16.4184 7.68892C16.4121 7.67655 16.4031 7.65924 16.3915 7.63733C16.3683 7.5935 16.3346 7.53119 16.2907 7.45303C16.2028 7.29679 16.0734 7.07671 15.9038 6.81402C15.5653 6.28991 15.0621 5.58943 14.403 4.88641C13.097 3.49333 11.0997 2.00903 8.5 2.00903C5.90033 2.00903 3.90299 3.49333 2.59698 4.88641C1.93789 5.58943 1.43471 6.28991 1.09622 6.81402C0.926567 7.07671 0.797195 7.29679 0.709314 7.45303C0.665349 7.53119 0.631693 7.5935 0.608502 7.63733C0.596904 7.65924 0.587917 7.67655 0.581559 7.68892L0.573993 7.70373L0.571693 7.70828L0.570913 7.70983C0.570791 7.71007 0.570382 7.71089 1.16667 8.00903L0.570382 7.71089C0.476539 7.89858 0.476539 8.11949 0.570382 8.30718L1.16667 8.00903C0.570382 8.30718 0.570259 8.30693 0.570382 8.30718L0.571693 8.30979L0.573993 8.31434L0.581559 8.32915C0.587917 8.34152 0.596904 8.35882 0.608502 8.38074C0.631693 8.42457 0.665349 8.48688 0.709314 8.56504C0.797195 8.72127 0.926567 8.94136 1.09622 9.20405C1.43471 9.72816 1.93789 10.4286 2.59698 11.1317C3.90299 12.5247 5.90033 14.009 8.5 14.009C11.0997 14.009 13.097 12.5247 14.403 11.1317C15.0621 10.4286 15.5653 9.72816 15.9038 9.20405C16.0734 8.94136 16.2028 8.72127 16.2907 8.56504C16.3346 8.48688 16.3683 8.42457 16.3915 8.38074C16.4031 8.35882 16.4121 8.34152 16.4184 8.32915L16.426 8.31434L16.4283 8.30979L16.4291 8.30824C16.4292 8.30799 16.4296 8.30718 15.8333 8.00903ZM15.8333 8.00903L16.4296 8.30718C16.5235 8.11949 16.5232 7.89811 16.4294 7.71042L15.8333 8.00903Z" fill="#BABABA"/>
<path fill-rule="evenodd" clip-rule="evenodd" d="M8.50016 6.67562C7.76378 6.67562 7.16683 7.27257 7.16683 8.00895C7.16683 8.74533 7.76378 9.34229 8.50016 9.34229C9.23654 9.34229 9.8335 8.74533 9.8335 8.00895C9.8335 7.27257 9.23654 6.67562 8.50016 6.67562ZM5.8335 8.00895C5.8335 6.53619 7.0274 5.34229 8.50016 5.34229C9.97292 5.34229 11.1668 6.53619 11.1668 8.00895C11.1668 9.48171 9.97292 10.6756 8.50016 10.6756C7.0274 10.6756 5.8335 9.48171 5.8335 8.00895Z" fill="#BABABA"/>
</g>
<defs>
<clipPath id="clip0_313_766">
<rect width="16" height="16" fill="white" transform="translate(0.5 0.0090332)"/>
</clipPath>
</defs>
</svg>
