<svg width="17" height="17" viewBox="0 0 17 17" fill="none" xmlns="http://www.w3.org/2000/svg">
<g clip-path="url(#clip0_313_763)">
<path fill-rule="evenodd" clip-rule="evenodd" d="M10.4419 1.67234C10.9678 1.45444 11.5315 1.34229 12.1007 1.34229C12.6699 1.34229 13.2336 1.45444 13.7595 1.67234C14.2852 1.89019 14.763 2.20949 15.1653 2.61199C15.5678 3.01436 15.8873 3.49229 16.1052 4.01807C16.3231 4.54395 16.4352 5.1076 16.4352 5.67684C16.4352 6.24607 16.3231 6.80972 16.1052 7.3356C15.8873 7.86143 15.568 8.33918 15.1654 8.74157C15.1654 8.74161 15.1655 8.74154 15.1654 8.74157L9.2721 14.6349C9.01175 14.8953 8.58964 14.8953 8.32929 14.6349L2.43596 8.74157C1.62314 7.92875 1.1665 6.82633 1.1665 5.67684C1.1665 4.52734 1.62314 3.42492 2.43596 2.6121C3.24878 1.79928 4.3512 1.34264 5.5007 1.34264C6.6502 1.34264 7.75262 1.79928 8.56544 2.6121L8.8007 2.84736L9.03585 2.61221C9.03589 2.61217 9.03581 2.61225 9.03585 2.61221C9.43824 2.20966 9.91611 1.89021 10.4419 1.67234ZM12.1007 2.67562C11.7066 2.67562 11.3164 2.75326 10.9523 2.90411C10.5883 3.05497 10.2575 3.27607 9.97888 3.5548L9.2721 4.26157C9.01175 4.52192 8.58964 4.52192 8.32929 4.26157L7.62263 3.55491C7.05986 2.99214 6.29658 2.67598 5.5007 2.67598C4.70482 2.67598 3.94154 2.99214 3.37877 3.55491C2.816 4.11768 2.49984 4.88096 2.49984 5.67684C2.49984 6.47271 2.816 7.23599 3.37877 7.79876L8.8007 13.2207L14.2226 7.79876C14.5014 7.52017 14.7226 7.18928 14.8734 6.82521C15.0243 6.46114 15.1019 6.07092 15.1019 5.67684C15.1019 5.28275 15.0243 4.89253 14.8734 4.52846C14.7226 4.16439 14.5015 3.83361 14.2227 3.55502C13.9441 3.27629 13.6131 3.05497 13.2491 2.90411C12.885 2.75326 12.4948 2.67562 12.1007 2.67562Z" fill="#BABABA"/>
</g>
<defs>
<clipPath id="clip0_313_763">
<rect width="16" height="16" fill="white" transform="translate(0.5 0.0090332)"/>
</clipPath>
</defs>
</svg>
