<svg width="17" height="17" viewBox="0 0 17 17" fill="none" xmlns="http://www.w3.org/2000/svg">
<path fill-rule="evenodd" clip-rule="evenodd" d="M3.8335 2.67562C3.65668 2.67562 3.48712 2.74586 3.36209 2.87088C3.23707 2.9959 3.16683 3.16547 3.16683 3.34229V12.3995L4.69543 10.8709C4.82045 10.7459 4.99002 10.6756 5.16683 10.6756H13.1668C13.3436 10.6756 13.5132 10.6054 13.6382 10.4804C13.7633 10.3553 13.8335 10.1858 13.8335 10.009V3.34229C13.8335 3.16547 13.7633 2.99591 13.6382 2.87088C13.5132 2.74586 13.3436 2.67562 13.1668 2.67562H3.8335ZM2.41928 1.92807C2.79436 1.553 3.30306 1.34229 3.8335 1.34229H13.1668C13.6973 1.34229 14.206 1.553 14.581 1.92807C14.9561 2.30314 15.1668 2.81185 15.1668 3.34229V10.009C15.1668 10.5394 14.9561 11.0481 14.581 11.4232C14.206 11.7982 13.6973 12.009 13.1668 12.009H5.44297L2.97157 14.4804C2.7809 14.671 2.49416 14.7281 2.24504 14.6249C1.99592 14.5217 1.8335 14.2786 1.8335 14.009V3.34229C1.8335 2.81185 2.04421 2.30314 2.41928 1.92807Z" fill="#BABABA"/>
</svg>
