<svg width="31" height="31" viewBox="0 0 31 31" fill="none" xmlns="http://www.w3.org/2000/svg">
<g clip-path="url(#clip0_109_908)">
<path d="M30.9285 15.5533C30.9285 7.21843 24.1942 0.46167 15.8869 0.46167C7.57959 0.46167 0.845215 7.21843 0.845215 15.5533C0.845215 23.0859 6.34571 29.3295 13.5366 30.4617V19.9158H9.71745V15.5533H13.5366V12.2285C13.5366 8.44611 15.7823 6.35685 19.2181 6.35685C20.8639 6.35685 22.5851 6.65161 22.5851 6.65161V10.3656H20.6885C18.82 10.3656 18.2371 11.529 18.2371 12.7225V15.5533H22.4089L21.742 19.9158H18.2371V30.4617C25.4281 29.3295 30.9285 23.0862 30.9285 15.5533Z" fill="#EAEAEA"/>
</g>
<defs>
<clipPath id="clip0_109_908">
<rect width="30.0833" height="30" fill="white" transform="translate(0.845215 0.46167)"/>
</clipPath>
</defs>
</svg>
