<svg width="31" height="31" viewBox="0 0 31 31" fill="none" xmlns="http://www.w3.org/2000/svg">
<g clip-path="url(#clip0_109_894)">
<path d="M28.3356 0.46167H2.69719C1.47329 0.46167 0.478516 1.43021 0.478516 2.6245V28.2968C0.478516 29.4917 1.47329 30.4617 2.69719 30.4617H28.3356C29.5622 30.4617 30.5612 29.4917 30.5612 28.2968V2.6245C30.5612 1.42952 29.5622 0.46167 28.3356 0.46167ZM9.40238 26.0249H4.93595V11.7086H9.40238V26.0249ZM7.17055 9.75292C5.73758 9.75292 4.5822 8.59661 4.5822 7.17244C4.5822 5.74827 5.73758 4.59196 7.17055 4.59196C8.60351 4.59196 9.75681 5.74827 9.75681 7.17244C9.75681 8.59661 8.59798 9.75292 7.17055 9.75292ZM26.1134 26.0249H21.6518V19.0628C21.6518 17.4026 21.6234 15.2667 19.3335 15.2667C17.0435 15.2667 16.6579 17.076 16.6579 18.9441V26.0249H12.2012V11.7086H16.4779V13.6658H16.5388C17.1335 12.5405 18.5893 11.3531 20.7602 11.3531C25.2779 11.3531 26.1127 14.3174 26.1127 18.173V26.0242L26.1134 26.0249Z" fill="#EAEAEA"/>
</g>
<defs>
<clipPath id="clip0_109_894">
<rect width="30.0819" height="30" fill="white" transform="translate(0.478516 0.46167)"/>
</clipPath>
</defs>
</svg>
