<svg width="38" height="31" viewBox="0 0 38 31" fill="none" xmlns="http://www.w3.org/2000/svg">
<g clip-path="url(#clip0_109_896)">
<path d="M17.3508 14.6135H5.06592V25.3666H17.3508V14.6135Z" fill="#EAEAEA"/>
<path d="M32.9115 14.6135H19.9442V16.7912H32.9115V14.6135Z" fill="#EAEAEA"/>
<path d="M32.9115 18.9015H19.9442V21.0792H32.9115V18.9015Z" fill="#EAEAEA"/>
<path d="M32.9115 23.1888H19.9442V25.3665H32.9115V23.1888Z" fill="#EAEAEA"/>
<path d="M35.0554 30.4617H2.99149C1.42813 30.4617 0.156372 29.1934 0.156372 27.6344V3.28894C0.156372 1.7299 1.42813 0.46167 2.99149 0.46167H35.0554C36.6187 0.46167 37.8905 1.7299 37.8905 3.28894V27.6344C37.8905 29.1934 36.6187 30.4617 35.0554 30.4617ZM2.99149 2.63665C2.6371 2.63665 2.33739 2.93553 2.33739 3.28894V27.6344C2.33739 27.9885 2.6371 28.2867 2.99149 28.2867H35.0554C35.4098 28.2867 35.7095 27.9878 35.7095 27.6344V3.28894C35.7095 2.93486 35.4098 2.63665 35.0554 2.63665H2.99149Z" fill="#EAEAEA"/>
<path d="M5.46411 11.6663V4.96167H6.78514L9.53656 9.43885V4.96167H10.7975V11.6663H9.43531L6.72506 7.29417V11.6663H5.46411Z" fill="#EAEAEA"/>
<path d="M12.2327 11.6663V4.96167H17.2178V6.09594H13.5901V7.58228H16.9653V8.71184H13.5901V10.5368H17.346V11.6663H12.2327Z" fill="#EAEAEA"/>
<path d="M19.4514 11.6663L17.8462 4.96167H19.2361L20.2493 9.56675L21.4785 4.96167H23.0925L24.2711 9.64484L25.3032 4.96167H26.6702L25.0373 11.6663H23.5974L22.2582 6.65399L20.9236 11.6663H19.4514Z" fill="#EAEAEA"/>
<path d="M27.0184 9.48468L28.3395 9.35678C28.4191 9.79904 28.5804 10.1235 28.8235 10.3308C29.0665 10.5382 29.3945 10.6418 29.807 10.6418C30.2444 10.6418 30.5738 10.5496 30.7952 10.3652C31.0166 10.1807 31.128 9.96531 31.128 9.71826C31.128 9.5594 31.0814 9.42477 30.9883 9.3137C30.8951 9.20262 30.7324 9.10569 30.4996 9.02356C30.3402 8.96837 29.9784 8.87143 29.4128 8.73074C28.6851 8.55101 28.1748 8.32954 27.8811 8.06768C27.4687 7.69879 27.2621 7.24912 27.2621 6.71867C27.2621 6.37738 27.3593 6.05763 27.5531 5.76076C27.7475 5.46323 28.0269 5.23705 28.3921 5.08155C28.7573 4.92605 29.1988 4.84863 29.7152 4.84863C30.559 4.84863 31.1942 5.03308 31.6208 5.40197C32.0474 5.77086 32.2715 6.26361 32.2924 6.87888L30.9349 6.93812C30.8769 6.59346 30.752 6.34574 30.561 6.19495C30.37 6.04416 30.0831 5.96877 29.701 5.96877C29.3189 5.96877 28.9976 6.04955 28.7749 6.21111C28.6311 6.31477 28.5595 6.45344 28.5595 6.62712C28.5595 6.78598 28.627 6.92129 28.7614 7.03438C28.9328 7.17776 29.3486 7.3272 30.0088 7.4827C30.669 7.6382 31.1577 7.79909 31.4743 7.96536C31.7909 8.13163 32.0386 8.35848 32.2175 8.6466C32.3964 8.93471 32.4855 9.29081 32.4855 9.71423C32.4855 10.0986 32.3782 10.4581 32.1642 10.7933C31.9502 11.1285 31.6478 11.3776 31.2563 11.5412C30.8647 11.7041 30.3774 11.7855 29.7935 11.7855C28.9436 11.7855 28.2909 11.5896 27.8352 11.1979C27.3796 10.8061 27.1075 10.2353 27.0191 9.48535L27.0184 9.48468Z" fill="#EAEAEA"/>
</g>
<defs>
<clipPath id="clip0_109_896">
<rect width="37.7341" height="30" fill="white" transform="translate(0.156372 0.46167)"/>
</clipPath>
</defs>
</svg>
