<svg width="39" height="27" viewBox="0 0 39 27" fill="none" xmlns="http://www.w3.org/2000/svg">
<g clip-path="url(#clip0_109_890)">
<path d="M37.4556 4.52188C37.0263 2.92286 35.7663 1.66628 34.1628 1.23825C31.2563 0.46167 19.6091 0.46167 19.6091 0.46167C19.6091 0.46167 7.96181 0.46167 5.05842 1.23825C3.45497 1.66628 2.19489 2.92286 1.76567 4.52188C0.986938 7.41722 0.986938 13.4617 0.986938 13.4617C0.986938 13.4617 0.986938 19.5061 1.76567 22.4015C2.19489 24.0005 3.45497 25.2571 5.05842 25.6851C7.96181 26.4617 19.6091 26.4617 19.6091 26.4617C19.6091 26.4617 31.2563 26.4617 34.1597 25.6851C35.7632 25.2571 37.0233 24.0005 37.4525 22.4015C38.2312 19.5061 38.2312 13.4617 38.2312 13.4617C38.2312 13.4617 38.2312 7.41722 37.4525 4.52188H37.4556ZM15.884 19.0322V7.89111L25.5599 13.4617L15.884 19.0322Z" fill="#EAEAEA"/>
</g>
<defs>
<clipPath id="clip0_109_890">
<rect width="37.2443" height="26" fill="white" transform="translate(0.986938 0.46167)"/>
</clipPath>
</defs>
</svg>
